<mxfile host="app.diagrams.net" agent="Mozilla/5.0 (Windows NT 6.1; Win64; x64) AppleWebKit/537.36 (KHTML, like Gecko) Chrome/109.0.0.0 Safari/537.36" version="24.8.6">
  <diagram name="Page-1" id="_IJzThWEjXdws65PzWOr">
    <mxGraphModel dx="695" dy="543" grid="1" gridSize="10" guides="1" tooltips="1" connect="1" arrows="1" fold="1" page="1" pageScale="1" pageWidth="850" pageHeight="1100" math="1" shadow="0">
      <root>
        <mxCell id="0" />
        <mxCell id="1" parent="0" />
        <mxCell id="9p8t9NVOShXelaTlAj5N-1" value="" style="endArrow=blockThin;html=1;rounded=0;strokeWidth=2;endFill=1;" edge="1" parent="1">
          <mxGeometry width="50" height="50" relative="1" as="geometry">
            <mxPoint x="200" y="200" as="sourcePoint" />
            <mxPoint x="720" y="200" as="targetPoint" />
          </mxGeometry>
        </mxCell>
        <mxCell id="9p8t9NVOShXelaTlAj5N-2" value="" style="endArrow=blockThin;html=1;rounded=0;endFill=1;strokeWidth=2;strokeColor=#000000;" edge="1" parent="1">
          <mxGeometry width="50" height="50" relative="1" as="geometry">
            <mxPoint x="240" y="200" as="sourcePoint" />
            <mxPoint x="240" y="120" as="targetPoint" />
          </mxGeometry>
        </mxCell>
        <mxCell id="9p8t9NVOShXelaTlAj5N-3" value="" style="endArrow=blockThin;html=1;rounded=0;endFill=1;strokeWidth=2;strokeColor=#000000;" edge="1" parent="1">
          <mxGeometry width="50" height="50" relative="1" as="geometry">
            <mxPoint x="320" y="200" as="sourcePoint" />
            <mxPoint x="320" y="120" as="targetPoint" />
          </mxGeometry>
        </mxCell>
        <mxCell id="9p8t9NVOShXelaTlAj5N-4" value="" style="endArrow=blockThin;html=1;rounded=0;endFill=1;strokeWidth=2;strokeColor=#000000;" edge="1" parent="1">
          <mxGeometry width="50" height="50" relative="1" as="geometry">
            <mxPoint x="400" y="200" as="sourcePoint" />
            <mxPoint x="400" y="120" as="targetPoint" />
          </mxGeometry>
        </mxCell>
        <mxCell id="9p8t9NVOShXelaTlAj5N-5" value="" style="endArrow=blockThin;html=1;rounded=0;endFill=1;strokeWidth=2;strokeColor=#000000;" edge="1" parent="1">
          <mxGeometry width="50" height="50" relative="1" as="geometry">
            <mxPoint x="480" y="200" as="sourcePoint" />
            <mxPoint x="480" y="120" as="targetPoint" />
          </mxGeometry>
        </mxCell>
        <mxCell id="9p8t9NVOShXelaTlAj5N-6" value="" style="endArrow=blockThin;html=1;rounded=0;endFill=1;strokeWidth=2;strokeColor=#000000;" edge="1" parent="1">
          <mxGeometry width="50" height="50" relative="1" as="geometry">
            <mxPoint x="560" y="200" as="sourcePoint" />
            <mxPoint x="560" y="120" as="targetPoint" />
          </mxGeometry>
        </mxCell>
        <mxCell id="9p8t9NVOShXelaTlAj5N-7" value="" style="endArrow=blockThin;html=1;rounded=0;endFill=1;strokeWidth=3;strokeColor=#000000;" edge="1" parent="1">
          <mxGeometry width="50" height="50" relative="1" as="geometry">
            <mxPoint x="640" y="200" as="sourcePoint" />
            <mxPoint x="640" y="120" as="targetPoint" />
          </mxGeometry>
        </mxCell>
        <mxCell id="9p8t9NVOShXelaTlAj5N-8" value="&lt;font style=&quot;font-size: 18px;&quot;&gt;$$t$$&lt;/font&gt;" style="text;html=1;align=center;verticalAlign=middle;whiteSpace=wrap;rounded=0;" vertex="1" parent="1">
          <mxGeometry x="680" y="200" width="60" height="30" as="geometry" />
        </mxCell>
        <mxCell id="9p8t9NVOShXelaTlAj5N-17" value="&lt;font style=&quot;font-size: 24px;&quot;&gt;$$...$$&lt;/font&gt;" style="text;html=1;align=center;verticalAlign=middle;whiteSpace=wrap;rounded=0;" vertex="1" parent="1">
          <mxGeometry x="410" y="140" width="60" height="30" as="geometry" />
        </mxCell>
        <mxCell id="9p8t9NVOShXelaTlAj5N-27" value="&lt;font style=&quot;font-size: 16px;&quot;&gt;$$n$$&lt;/font&gt;" style="text;html=1;align=center;verticalAlign=middle;whiteSpace=wrap;rounded=0;" vertex="1" parent="1">
          <mxGeometry x="210" y="200" width="60" height="30" as="geometry" />
        </mxCell>
        <mxCell id="9p8t9NVOShXelaTlAj5N-28" value="&lt;font style=&quot;font-size: 16px;&quot;&gt;$$n+1$$&lt;/font&gt;" style="text;html=1;align=center;verticalAlign=middle;whiteSpace=wrap;rounded=0;" vertex="1" parent="1">
          <mxGeometry x="290" y="200" width="60" height="30" as="geometry" />
        </mxCell>
        <mxCell id="9p8t9NVOShXelaTlAj5N-29" value="&lt;font style=&quot;font-size: 16px;&quot;&gt;$$n+2$$&lt;/font&gt;" style="text;html=1;align=center;verticalAlign=middle;whiteSpace=wrap;rounded=0;" vertex="1" parent="1">
          <mxGeometry x="365" y="200" width="60" height="30" as="geometry" />
        </mxCell>
        <mxCell id="9p8t9NVOShXelaTlAj5N-30" value="&lt;font style=&quot;font-size: 16px;&quot;&gt;$$n+L-3$$&lt;/font&gt;" style="text;html=1;align=center;verticalAlign=middle;whiteSpace=wrap;rounded=0;" vertex="1" parent="1">
          <mxGeometry x="448" y="200" width="60" height="30" as="geometry" />
        </mxCell>
        <mxCell id="9p8t9NVOShXelaTlAj5N-31" value="&lt;font style=&quot;font-size: 16px;&quot;&gt;$$n+L-2$$&lt;/font&gt;" style="text;html=1;align=center;verticalAlign=middle;whiteSpace=wrap;rounded=0;" vertex="1" parent="1">
          <mxGeometry x="536" y="200" width="60" height="30" as="geometry" />
        </mxCell>
        <mxCell id="9p8t9NVOShXelaTlAj5N-32" value="&lt;font style=&quot;font-size: 16px;&quot;&gt;$$n+L-1$$&lt;/font&gt;" style="text;html=1;align=center;verticalAlign=middle;whiteSpace=wrap;rounded=0;" vertex="1" parent="1">
          <mxGeometry x="625" y="200" width="60" height="30" as="geometry" />
        </mxCell>
        <mxCell id="9p8t9NVOShXelaTlAj5N-33" value="" style="endArrow=blockThin;html=1;rounded=0;strokeWidth=2;endFill=1;" edge="1" parent="1">
          <mxGeometry width="50" height="50" relative="1" as="geometry">
            <mxPoint x="200" y="360" as="sourcePoint" />
            <mxPoint x="720" y="360" as="targetPoint" />
          </mxGeometry>
        </mxCell>
        <mxCell id="9p8t9NVOShXelaTlAj5N-34" value="" style="endArrow=blockThin;html=1;rounded=0;endFill=1;strokeWidth=2;strokeColor=#999999;dashed=1;" edge="1" parent="1">
          <mxGeometry width="50" height="50" relative="1" as="geometry">
            <mxPoint x="240" y="360" as="sourcePoint" />
            <mxPoint x="240" y="280" as="targetPoint" />
          </mxGeometry>
        </mxCell>
        <mxCell id="9p8t9NVOShXelaTlAj5N-35" value="" style="endArrow=blockThin;html=1;rounded=0;endFill=1;strokeWidth=2;strokeColor=#999999;dashed=1;" edge="1" parent="1">
          <mxGeometry width="50" height="50" relative="1" as="geometry">
            <mxPoint x="320" y="360" as="sourcePoint" />
            <mxPoint x="320" y="280" as="targetPoint" />
          </mxGeometry>
        </mxCell>
        <mxCell id="9p8t9NVOShXelaTlAj5N-36" value="" style="endArrow=blockThin;html=1;rounded=0;endFill=1;strokeWidth=2;strokeColor=#999999;dashed=1;" edge="1" parent="1">
          <mxGeometry width="50" height="50" relative="1" as="geometry">
            <mxPoint x="400" y="360" as="sourcePoint" />
            <mxPoint x="400" y="280" as="targetPoint" />
          </mxGeometry>
        </mxCell>
        <mxCell id="9p8t9NVOShXelaTlAj5N-37" value="" style="endArrow=blockThin;html=1;rounded=0;endFill=1;strokeWidth=2;strokeColor=#999999;dashed=1;" edge="1" parent="1">
          <mxGeometry width="50" height="50" relative="1" as="geometry">
            <mxPoint x="480" y="360" as="sourcePoint" />
            <mxPoint x="480" y="280" as="targetPoint" />
          </mxGeometry>
        </mxCell>
        <mxCell id="9p8t9NVOShXelaTlAj5N-38" value="" style="endArrow=blockThin;html=1;rounded=0;endFill=1;strokeWidth=2;strokeColor=#999999;dashed=1;" edge="1" parent="1">
          <mxGeometry width="50" height="50" relative="1" as="geometry">
            <mxPoint x="560" y="360" as="sourcePoint" />
            <mxPoint x="560" y="280" as="targetPoint" />
          </mxGeometry>
        </mxCell>
        <mxCell id="9p8t9NVOShXelaTlAj5N-39" value="" style="endArrow=blockThin;html=1;rounded=0;endFill=1;strokeWidth=2;strokeColor=#999999;dashed=1;" edge="1" parent="1">
          <mxGeometry width="50" height="50" relative="1" as="geometry">
            <mxPoint x="640" y="360" as="sourcePoint" />
            <mxPoint x="640" y="280" as="targetPoint" />
          </mxGeometry>
        </mxCell>
        <mxCell id="9p8t9NVOShXelaTlAj5N-40" value="&lt;font style=&quot;font-size: 18px;&quot;&gt;$$t$$&lt;/font&gt;" style="text;html=1;align=center;verticalAlign=middle;whiteSpace=wrap;rounded=0;" vertex="1" parent="1">
          <mxGeometry x="680" y="360" width="60" height="30" as="geometry" />
        </mxCell>
        <mxCell id="9p8t9NVOShXelaTlAj5N-41" value="&lt;font style=&quot;font-size: 24px;&quot;&gt;$$...$$&lt;/font&gt;" style="text;html=1;align=center;verticalAlign=middle;whiteSpace=wrap;rounded=0;" vertex="1" parent="1">
          <mxGeometry x="410" y="300" width="60" height="30" as="geometry" />
        </mxCell>
        <mxCell id="9p8t9NVOShXelaTlAj5N-42" value="&lt;font style=&quot;font-size: 16px;&quot;&gt;$$n$$&lt;/font&gt;" style="text;html=1;align=center;verticalAlign=middle;whiteSpace=wrap;rounded=0;" vertex="1" parent="1">
          <mxGeometry x="210" y="360" width="60" height="30" as="geometry" />
        </mxCell>
        <mxCell id="9p8t9NVOShXelaTlAj5N-43" value="&lt;font style=&quot;font-size: 16px;&quot;&gt;$$n+1$$&lt;/font&gt;" style="text;html=1;align=center;verticalAlign=middle;whiteSpace=wrap;rounded=0;" vertex="1" parent="1">
          <mxGeometry x="290" y="360" width="60" height="30" as="geometry" />
        </mxCell>
        <mxCell id="9p8t9NVOShXelaTlAj5N-44" value="&lt;font style=&quot;font-size: 16px;&quot;&gt;$$n+2$$&lt;/font&gt;" style="text;html=1;align=center;verticalAlign=middle;whiteSpace=wrap;rounded=0;" vertex="1" parent="1">
          <mxGeometry x="365" y="360" width="60" height="30" as="geometry" />
        </mxCell>
        <mxCell id="9p8t9NVOShXelaTlAj5N-45" value="&lt;font style=&quot;font-size: 16px;&quot;&gt;$$n+L-3$$&lt;/font&gt;" style="text;html=1;align=center;verticalAlign=middle;whiteSpace=wrap;rounded=0;" vertex="1" parent="1">
          <mxGeometry x="448" y="360" width="60" height="30" as="geometry" />
        </mxCell>
        <mxCell id="9p8t9NVOShXelaTlAj5N-46" value="&lt;font style=&quot;font-size: 16px;&quot;&gt;$$n+L-2$$&lt;/font&gt;" style="text;html=1;align=center;verticalAlign=middle;whiteSpace=wrap;rounded=0;" vertex="1" parent="1">
          <mxGeometry x="536" y="360" width="60" height="30" as="geometry" />
        </mxCell>
        <mxCell id="9p8t9NVOShXelaTlAj5N-47" value="&lt;font style=&quot;font-size: 16px;&quot;&gt;$$n+L-1$$&lt;/font&gt;" style="text;html=1;align=center;verticalAlign=middle;whiteSpace=wrap;rounded=0;" vertex="1" parent="1">
          <mxGeometry x="625" y="360" width="60" height="30" as="geometry" />
        </mxCell>
        <mxCell id="9p8t9NVOShXelaTlAj5N-48" value="" style="endArrow=blockThin;html=1;rounded=0;endFill=1;strokeWidth=2;strokeColor=#EA6B66;" edge="1" parent="1">
          <mxGeometry width="50" height="50" relative="1" as="geometry">
            <mxPoint x="245" y="360" as="sourcePoint" />
            <mxPoint x="245" y="280" as="targetPoint" />
          </mxGeometry>
        </mxCell>
        <mxCell id="9p8t9NVOShXelaTlAj5N-49" value="" style="endArrow=blockThin;html=1;rounded=0;endFill=1;strokeWidth=2;strokeColor=#EA6B66;" edge="1" parent="1">
          <mxGeometry width="50" height="50" relative="1" as="geometry">
            <mxPoint x="331" y="360" as="sourcePoint" />
            <mxPoint x="331" y="280" as="targetPoint" />
          </mxGeometry>
        </mxCell>
        <mxCell id="9p8t9NVOShXelaTlAj5N-50" value="" style="endArrow=blockThin;html=1;rounded=0;endFill=1;strokeWidth=2;strokeColor=#EA6B66;" edge="1" parent="1">
          <mxGeometry width="50" height="50" relative="1" as="geometry">
            <mxPoint x="413" y="360" as="sourcePoint" />
            <mxPoint x="413" y="280" as="targetPoint" />
          </mxGeometry>
        </mxCell>
        <mxCell id="9p8t9NVOShXelaTlAj5N-51" value="" style="endArrow=blockThin;html=1;rounded=0;endFill=1;strokeWidth=2;strokeColor=#EA6B66;" edge="1" parent="1">
          <mxGeometry width="50" height="50" relative="1" as="geometry">
            <mxPoint x="497" y="360" as="sourcePoint" />
            <mxPoint x="497" y="280" as="targetPoint" />
          </mxGeometry>
        </mxCell>
        <mxCell id="9p8t9NVOShXelaTlAj5N-52" value="" style="endArrow=blockThin;html=1;rounded=0;endFill=1;strokeWidth=2;strokeColor=#EA6B66;" edge="1" parent="1">
          <mxGeometry width="50" height="50" relative="1" as="geometry">
            <mxPoint x="580" y="360" as="sourcePoint" />
            <mxPoint x="580" y="280" as="targetPoint" />
          </mxGeometry>
        </mxCell>
        <mxCell id="9p8t9NVOShXelaTlAj5N-53" value="" style="endArrow=blockThin;html=1;rounded=0;endFill=1;strokeWidth=3;strokeColor=#FF0000;" edge="1" parent="1">
          <mxGeometry width="50" height="50" relative="1" as="geometry">
            <mxPoint x="662.58" y="360" as="sourcePoint" />
            <mxPoint x="662.58" y="280" as="targetPoint" />
          </mxGeometry>
        </mxCell>
        <mxCell id="9p8t9NVOShXelaTlAj5N-55" value="&lt;font color=&quot;#ff0000&quot; style=&quot;font-size: 14px;&quot;&gt;$$\Delta$$&lt;/font&gt;" style="text;html=1;align=center;verticalAlign=middle;whiteSpace=wrap;rounded=0;strokeWidth=0;" vertex="1" parent="1">
          <mxGeometry x="230" y="300" width="60" height="30" as="geometry" />
        </mxCell>
        <mxCell id="9p8t9NVOShXelaTlAj5N-56" value="&lt;font color=&quot;#ff0000&quot; style=&quot;font-size: 14px;&quot;&gt;$$2\Delta$$&lt;/font&gt;" style="text;html=1;align=center;verticalAlign=middle;whiteSpace=wrap;rounded=0;strokeWidth=0;" vertex="1" parent="1">
          <mxGeometry x="320" y="300" width="60" height="30" as="geometry" />
        </mxCell>
        <mxCell id="9p8t9NVOShXelaTlAj5N-57" value="&lt;font color=&quot;#ff0000&quot; style=&quot;font-size: 14px;&quot;&gt;$$L\Delta$$&lt;/font&gt;" style="text;html=1;align=center;verticalAlign=middle;whiteSpace=wrap;rounded=0;strokeWidth=0;" vertex="1" parent="1">
          <mxGeometry x="650" y="300" width="60" height="30" as="geometry" />
        </mxCell>
        <mxCell id="9p8t9NVOShXelaTlAj5N-58" value="&lt;font color=&quot;#ff0000&quot; style=&quot;font-size: 14px;&quot;&gt;$$(L-1)\Delta$$&lt;/font&gt;" style="text;html=1;align=center;verticalAlign=middle;whiteSpace=wrap;rounded=0;strokeWidth=0;" vertex="1" parent="1">
          <mxGeometry x="580" y="300" width="60" height="30" as="geometry" />
        </mxCell>
        <mxCell id="9p8t9NVOShXelaTlAj5N-59" value="&lt;font color=&quot;#ff0000&quot; style=&quot;font-size: 14px;&quot;&gt;$$(L-2)\Delta$$&lt;/font&gt;" style="text;html=1;align=center;verticalAlign=middle;whiteSpace=wrap;rounded=0;strokeWidth=0;" vertex="1" parent="1">
          <mxGeometry x="500" y="300" width="60" height="30" as="geometry" />
        </mxCell>
        <mxCell id="9p8t9NVOShXelaTlAj5N-60" value="" style="endArrow=blockThin;html=1;rounded=0;strokeWidth=2;endFill=1;" edge="1" parent="1">
          <mxGeometry width="50" height="50" relative="1" as="geometry">
            <mxPoint x="200" y="530" as="sourcePoint" />
            <mxPoint x="720" y="530" as="targetPoint" />
          </mxGeometry>
        </mxCell>
        <mxCell id="9p8t9NVOShXelaTlAj5N-61" value="" style="endArrow=blockThin;html=1;rounded=0;endFill=1;strokeWidth=2;strokeColor=#000000;" edge="1" parent="1">
          <mxGeometry width="50" height="50" relative="1" as="geometry">
            <mxPoint x="240" y="530" as="sourcePoint" />
            <mxPoint x="240" y="450" as="targetPoint" />
          </mxGeometry>
        </mxCell>
        <mxCell id="9p8t9NVOShXelaTlAj5N-62" value="" style="endArrow=blockThin;html=1;rounded=0;endFill=1;strokeWidth=2;strokeColor=#000000;" edge="1" parent="1">
          <mxGeometry width="50" height="50" relative="1" as="geometry">
            <mxPoint x="320" y="530" as="sourcePoint" />
            <mxPoint x="320" y="450" as="targetPoint" />
          </mxGeometry>
        </mxCell>
        <mxCell id="9p8t9NVOShXelaTlAj5N-63" value="" style="endArrow=blockThin;html=1;rounded=0;endFill=1;strokeWidth=2;strokeColor=#000000;" edge="1" parent="1">
          <mxGeometry width="50" height="50" relative="1" as="geometry">
            <mxPoint x="400" y="530" as="sourcePoint" />
            <mxPoint x="400" y="450" as="targetPoint" />
          </mxGeometry>
        </mxCell>
        <mxCell id="9p8t9NVOShXelaTlAj5N-64" value="" style="endArrow=blockThin;html=1;rounded=0;endFill=1;strokeWidth=2;strokeColor=#000000;" edge="1" parent="1">
          <mxGeometry width="50" height="50" relative="1" as="geometry">
            <mxPoint x="480" y="530" as="sourcePoint" />
            <mxPoint x="480" y="450" as="targetPoint" />
          </mxGeometry>
        </mxCell>
        <mxCell id="9p8t9NVOShXelaTlAj5N-65" value="" style="endArrow=blockThin;html=1;rounded=0;endFill=1;strokeWidth=2;strokeColor=#000000;" edge="1" parent="1">
          <mxGeometry width="50" height="50" relative="1" as="geometry">
            <mxPoint x="560" y="530" as="sourcePoint" />
            <mxPoint x="560" y="450" as="targetPoint" />
          </mxGeometry>
        </mxCell>
        <mxCell id="9p8t9NVOShXelaTlAj5N-66" value="" style="endArrow=blockThin;html=1;rounded=0;endFill=1;strokeWidth=2;strokeColor=#999999;dashed=1;" edge="1" parent="1">
          <mxGeometry width="50" height="50" relative="1" as="geometry">
            <mxPoint x="640" y="530" as="sourcePoint" />
            <mxPoint x="640" y="450" as="targetPoint" />
          </mxGeometry>
        </mxCell>
        <mxCell id="9p8t9NVOShXelaTlAj5N-67" value="&lt;font style=&quot;font-size: 18px;&quot;&gt;$$t$$&lt;/font&gt;" style="text;html=1;align=center;verticalAlign=middle;whiteSpace=wrap;rounded=0;" vertex="1" parent="1">
          <mxGeometry x="680" y="530" width="60" height="30" as="geometry" />
        </mxCell>
        <mxCell id="9p8t9NVOShXelaTlAj5N-68" value="&lt;font style=&quot;font-size: 24px;&quot;&gt;$$...$$&lt;/font&gt;" style="text;html=1;align=center;verticalAlign=middle;whiteSpace=wrap;rounded=0;" vertex="1" parent="1">
          <mxGeometry x="410" y="470" width="60" height="30" as="geometry" />
        </mxCell>
        <mxCell id="9p8t9NVOShXelaTlAj5N-69" value="&lt;font style=&quot;font-size: 16px;&quot;&gt;$$n$$&lt;/font&gt;" style="text;html=1;align=center;verticalAlign=middle;whiteSpace=wrap;rounded=0;" vertex="1" parent="1">
          <mxGeometry x="210" y="530" width="60" height="30" as="geometry" />
        </mxCell>
        <mxCell id="9p8t9NVOShXelaTlAj5N-70" value="&lt;font style=&quot;font-size: 16px;&quot;&gt;$$n+1$$&lt;/font&gt;" style="text;html=1;align=center;verticalAlign=middle;whiteSpace=wrap;rounded=0;" vertex="1" parent="1">
          <mxGeometry x="290" y="530" width="60" height="30" as="geometry" />
        </mxCell>
        <mxCell id="9p8t9NVOShXelaTlAj5N-71" value="&lt;font style=&quot;font-size: 16px;&quot;&gt;$$n+2$$&lt;/font&gt;" style="text;html=1;align=center;verticalAlign=middle;whiteSpace=wrap;rounded=0;" vertex="1" parent="1">
          <mxGeometry x="365" y="530" width="60" height="30" as="geometry" />
        </mxCell>
        <mxCell id="9p8t9NVOShXelaTlAj5N-72" value="&lt;font style=&quot;font-size: 16px;&quot;&gt;$$n+L-3$$&lt;/font&gt;" style="text;html=1;align=center;verticalAlign=middle;whiteSpace=wrap;rounded=0;" vertex="1" parent="1">
          <mxGeometry x="448" y="530" width="60" height="30" as="geometry" />
        </mxCell>
        <mxCell id="9p8t9NVOShXelaTlAj5N-73" value="&lt;font style=&quot;font-size: 16px;&quot;&gt;$$n+L-2$$&lt;/font&gt;" style="text;html=1;align=center;verticalAlign=middle;whiteSpace=wrap;rounded=0;" vertex="1" parent="1">
          <mxGeometry x="536" y="530" width="60" height="30" as="geometry" />
        </mxCell>
        <mxCell id="9p8t9NVOShXelaTlAj5N-74" value="&lt;font style=&quot;font-size: 16px;&quot;&gt;$$n+L-1$$&lt;/font&gt;" style="text;html=1;align=center;verticalAlign=middle;whiteSpace=wrap;rounded=0;" vertex="1" parent="1">
          <mxGeometry x="625" y="530" width="60" height="30" as="geometry" />
        </mxCell>
        <mxCell id="9p8t9NVOShXelaTlAj5N-80" value="" style="endArrow=blockThin;html=1;rounded=0;endFill=1;strokeWidth=3;strokeColor=#FF0000;" edge="1" parent="1">
          <mxGeometry width="50" height="50" relative="1" as="geometry">
            <mxPoint x="662.58" y="530" as="sourcePoint" />
            <mxPoint x="662.58" y="450" as="targetPoint" />
          </mxGeometry>
        </mxCell>
        <mxCell id="9p8t9NVOShXelaTlAj5N-83" value="&lt;font color=&quot;#ff0000&quot; style=&quot;font-size: 14px;&quot;&gt;$$L\Delta$$&lt;/font&gt;" style="text;html=1;align=center;verticalAlign=middle;whiteSpace=wrap;rounded=0;strokeWidth=0;" vertex="1" parent="1">
          <mxGeometry x="650" y="470" width="60" height="30" as="geometry" />
        </mxCell>
        <mxCell id="9p8t9NVOShXelaTlAj5N-86" value="&lt;font color=&quot;#b5739d&quot; style=&quot;font-size: 16px;&quot;&gt;w/o Decimation&lt;/font&gt;" style="text;html=1;align=center;verticalAlign=middle;whiteSpace=wrap;rounded=0;" vertex="1" parent="1">
          <mxGeometry x="120" y="250" width="100" height="30" as="geometry" />
        </mxCell>
        <mxCell id="9p8t9NVOShXelaTlAj5N-87" value="&lt;font color=&quot;#b5739d&quot; style=&quot;font-size: 16px;&quot;&gt;w/ Decimation&lt;/font&gt;" style="text;html=1;align=center;verticalAlign=middle;whiteSpace=wrap;rounded=0;" vertex="1" parent="1">
          <mxGeometry x="130" y="420" width="100" height="30" as="geometry" />
        </mxCell>
      </root>
    </mxGraphModel>
  </diagram>
</mxfile>
